<?xml version="1.0" standalone="no"?>
<!DOCTYPE svg PUBLIC "-//W3C//DTD SVG 20010904//EN"
 "http://www.w3.org/TR/2001/REC-SVG-20010904/DTD/svg10.dtd">
<svg version="1.0" xmlns="http://www.w3.org/2000/svg"
 width="512.000000pt" height="512.000000pt" viewBox="0 0 512.000000 512.000000"
 preserveAspectRatio="xMidYMid meet">
<metadata>
Created by potrace 1.11, written by Peter Selinger 2001-2013
</metadata>
<g transform="translate(0.000000,512.000000) scale(0.100000,-0.100000)"
fill="#000000" stroke="none">
<path d="M1815 5108 c-3 -12 -138 -686 -149 -748 -2 -14 -7 -36 -10 -50 -3
-14 -8 -36 -10 -50 -2 -14 -14 -70 -25 -125 -12 -55 -24 -113 -27 -130 -3 -16
-55 -280 -116 -585 -60 -305 -112 -566 -114 -580 -2 -14 -9 -45 -14 -70 -6
-25 -12 -54 -14 -66 -3 -11 -16 -81 -31 -155 -15 -74 -29 -149 -32 -168 l-5
-33 394 6 c216 4 520 9 675 12 l281 5 -24 -93 c-22 -83 -181 -730 -189 -768
-2 -8 -15 -62 -30 -120 -15 -58 -28 -112 -30 -120 -2 -8 -15 -62 -30 -120 -14
-58 -28 -116 -31 -130 -3 -14 -11 -47 -19 -75 -8 -27 -16 -61 -19 -75 -2 -14
-39 -162 -80 -330 -42 -168 -78 -314 -80 -325 -2 -11 -13 -57 -25 -102 -12
-45 -21 -84 -21 -88 0 -4 146 188 325 427 179 238 331 440 338 448 7 8 23 31
37 50 14 19 30 42 37 50 7 8 247 328 534 710 287 382 683 910 881 1172 197
263 358 479 358 480 0 2 -394 3 -875 2 -622 0 -875 3 -872 10 43 118 121 326
127 341 5 11 52 137 105 280 53 143 100 271 106 285 10 23 65 169 204 545 30
83 59 159 64 170 14 31 41 110 41 118 0 4 -367 7 -815 7 -644 0 -816 -3 -820
-12z"/>
</g>
</svg>
