<?xml version="1.0" standalone="no"?>
<!DOCTYPE svg PUBLIC "-//W3C//DTD SVG 20010904//EN"
 "http://www.w3.org/TR/2001/REC-SVG-20010904/DTD/svg10.dtd">
<svg version="1.0" xmlns="http://www.w3.org/2000/svg"
 width="300.000000pt" height="300.000000pt" viewBox="0 0 300.000000 300.000000"
 preserveAspectRatio="xMidYMid meet">
<metadata>
Created by potrace 1.11, written by Peter Selinger 2001-2013
</metadata>
<g transform="translate(0.000000,300.000000) scale(0.100000,-0.100000)"
fill="#000000" stroke="none">
<path d="M1798 2604 c-2 -1 -28 -5 -58 -8 -30 -2 -77 -10 -105 -16 -27 -7 -54
-13 -60 -14 -28 -6 -160 -53 -235 -84 -88 -36 -245 -114 -364 -181 -61 -34
-73 -38 -103 -29 -19 5 -37 7 -40 4 -3 -2 -16 0 -30 5 -13 5 -67 12 -119 15
-72 5 -98 3 -111 -7 -30 -25 -53 -95 -65 -198 l-12 -101 -44 -35 c-25 -19 -49
-35 -54 -35 -14 0 -9 -35 17 -137 25 -96 25 -99 8 -138 -9 -22 -34 -60 -54
-85 -70 -86 -90 -157 -67 -247 12 -49 70 -120 119 -147 20 -10 43 -36 55 -60
20 -39 24 -41 72 -44 l50 -3 21 -87 c12 -48 24 -100 27 -117 3 -16 13 -38 23
-48 18 -18 125 -51 206 -62 28 -4 59 -9 70 -11 95 -19 556 -25 755 -11 123 9
269 37 370 71 104 35 181 84 318 204 l43 37 -6 60 c-3 33 -8 92 -11 130 -3 39
-6 79 -8 91 -3 14 7 29 30 48 19 15 34 34 34 42 0 9 14 35 31 58 69 97 69 189
0 298 -23 36 -43 52 -90 74 -34 16 -64 36 -67 46 -3 12 -19 20 -45 24 -21 4
-39 12 -39 18 0 23 -72 162 -112 216 -39 53 -128 142 -185 186 l-28 21 -59
-28 c-33 -16 -64 -28 -70 -28 -6 1 -24 0 -41 -1 -29 -2 -30 -2 -5 -9 43 -13
116 -22 101 -12 -10 7 -8 12 10 25 35 24 53 21 38 -6 -19 -36 -37 -49 -82 -63
-42 -13 -79 -7 -92 15 -11 17 -8 96 4 119 12 22 58 46 109 56 28 6 33 11 28
28 -2 12 -10 52 -17 89 -10 57 -15 67 -35 71 -13 2 -25 3 -26 1z m-753 -892
c-3 -3 -11 0 -18 7 -9 10 -8 11 6 5 10 -3 15 -9 12 -12z m220 -80 c-3 -3 -11
0 -18 7 -9 10 -8 11 6 5 10 -3 15 -9 12 -12z m-345 -8 c0 -8 -19 -13 -24 -6
-3 5 1 9 9 9 8 0 15 -2 15 -3z m-93 -49 c0 -8 -4 -12 -9 -9 -5 3 -6 10 -3 15
9 13 12 11 12 -6z m203 11 c0 -3 -4 -8 -10 -11 -5 -3 -10 -1 -10 4 0 6 5 11
10 11 6 0 10 -2 10 -4z m40 -6 c0 -5 -2 -10 -4 -10 -3 0 -8 5 -11 10 -3 6 -1
10 4 10 6 0 11 -4 11 -10z m195 0 c3 -5 1 -10 -4 -10 -6 0 -11 5 -11 10 0 6 2
10 4 10 3 0 8 -4 11 -10z m-341 -26 c3 -8 2 -12 -4 -9 -6 3 -10 10 -10 16 0
14 7 11 14 -7z m-80 -12 c3 -5 -1 -9 -9 -9 -8 0 -12 4 -9 9 3 4 7 8 9 8 2 0 6
-4 9 -8z m1386 4 c0 -3 -4 -8 -10 -11 -5 -3 -10 -1 -10 4 0 6 5 11 10 11 6 0
10 -2 10 -4z m-67 -21 c-3 -9 -8 -14 -10 -11 -3 3 -2 9 2 15 9 16 15 13 8 -4z
m-38 -5 c3 -5 1 -10 -4 -10 -6 0 -11 5 -11 10 0 6 2 10 4 10 3 0 8 -4 11 -10z
m-80 -28 c-3 -3 -11 0 -18 7 -9 10 -8 11 6 5 10 -3 15 -9 12 -12z m-38 -7 c0
-8 -4 -12 -9 -9 -5 3 -6 10 -3 15 9 13 12 11 12 -6z m-86 -52 c13 -16 12 -17
-3 -4 -10 7 -18 15 -18 17 0 8 8 3 21 -13z m-140 -30 c-12 -20 -14 -14 -5 12
4 9 9 14 11 11 3 -2 0 -13 -6 -23z"/>
</g>
</svg>
